<svg width="160" height="56" viewBox="0 0 160 56" fill="none" xmlns="http://www.w3.org/2000/svg">
<rect x="0.5" y="0.5" width="158.5" height="55" rx="7.5" stroke="#232323"/>
<g clip-path="url(#clip0_399_2768)">
<path d="M89.1002 34.4829C88.7497 35.2938 88.3349 36.0402 87.8543 36.7264C87.1992 37.6619 86.6629 38.3094 86.2495 38.669C85.6087 39.2592 84.9221 39.5615 84.1869 39.5787C83.6591 39.5787 83.0226 39.4283 82.2817 39.1231C81.5383 38.8194 80.8552 38.669 80.2306 38.669C79.5755 38.669 78.8729 38.8194 78.1214 39.1231C77.3687 39.4283 76.7624 39.5873 76.2988 39.6031C75.5938 39.6332 74.8911 39.3223 74.1897 38.669C73.742 38.2779 73.182 37.6074 72.5111 36.6576C71.7914 35.6433 71.1997 34.4671 70.7361 33.1262C70.2396 31.6778 69.9907 30.2753 69.9907 28.9175C69.9907 27.3621 70.3263 26.0206 70.9984 24.8964C71.5266 23.9934 72.2294 23.2811 73.1089 22.7582C73.9884 22.2353 74.9387 21.9689 75.9621 21.9518C76.5221 21.9518 77.2565 22.1253 78.169 22.4663C79.079 22.8084 79.6633 22.9819 79.9195 22.9819C80.111 22.9819 80.7601 22.779 81.8605 22.3746C82.901 21.9995 83.7793 21.8442 84.4987 21.9054C86.4483 22.063 87.913 22.8327 88.887 24.2195C87.1435 25.2776 86.281 26.7597 86.2981 28.6609C86.3139 30.1418 86.8502 31.3741 87.9044 32.3526C88.3821 32.8067 88.9157 33.1577 89.5092 33.407C89.3805 33.7809 89.2446 34.1391 89.1002 34.4829ZM84.6289 16.8603C84.6289 18.021 84.2055 19.1048 83.3616 20.1079C82.3432 21.3004 81.1114 21.9895 79.7756 21.8808C79.7586 21.7415 79.7487 21.5949 79.7487 21.4409C79.7487 20.3267 80.233 19.1341 81.0931 18.1591C81.5225 17.6654 82.0686 17.2549 82.7308 16.9275C83.3917 16.6049 84.0167 16.4265 84.6046 16.396C84.6217 16.5512 84.6289 16.7063 84.6289 16.8603V16.8603Z" fill="#FBFBFB"/>
</g>
<defs>
<clipPath id="clip0_399_2768">
<rect width="19.5185" height="23.2091" fill="white" transform="translate(69.9907 16.3954)"/>
</clipPath>
</defs>
</svg>
