<svg width="12" height="9" viewBox="0 0 12 9" fill="none" xmlns="http://www.w3.org/2000/svg">
<path d="M1.57301 8.3999L10.4219 8.3999C10.7 8.39834 10.9726 8.33868 11.2126 8.22687C11.4527 8.11507 11.6517 7.95504 11.7899 7.76276C11.928 7.57047 12.0005 7.35267 12 7.1311C11.9995 6.90952 11.9261 6.69192 11.7871 6.50004L7.36068 0.61093C7.21908 0.42461 7.01963 0.270508 6.78156 0.163484C6.5435 0.0564589 6.27485 0.00012157 6.00152 -9.68455e-05C5.72819 -0.000315261 5.4594 0.0555929 5.22107 0.162237C4.98274 0.26888 4.7829 0.422664 4.64083 0.608757L0.217722 6.49352C0.0770494 6.68503 0.00198282 6.90264 4.01658e-05 7.12455C-0.00190344 7.34646 0.0693455 7.56488 0.206652 7.75794C0.343957 7.951 0.5425 8.11192 0.782395 8.22459C1.02229 8.33725 1.29457 8.39771 1.57301 8.3999Z" fill="#3B5DA0"/>
</svg>
