<svg width="24" height="24" viewBox="0 0 24 24" fill="none" xmlns="http://www.w3.org/2000/svg">
<g clip-path="url(#clip0_101_943)">
<path d="M12.8572 4.28575C12.8572 3.37644 12.496 2.50436 11.853 1.86138C11.21 1.2184 10.3379 0.857178 9.42861 0.857178C8.51929 0.857178 7.64722 1.2184 7.00424 1.86138C6.36126 2.50436 6.00003 3.37644 6.00003 4.28575V14.5715M12.8572 7.71432V9.42861M0.857178 14.5715H23.1429V18C23.1429 19.364 22.6011 20.6721 21.6366 21.6366C20.6721 22.6011 19.364 23.1429 18 23.1429H6.00003C4.63606 23.1429 3.32796 22.6011 2.36349 21.6366C1.39901 20.6721 0.857178 19.364 0.857178 18V14.5715Z" stroke="white" stroke-linecap="round" stroke-linejoin="round"/>
</g>
<defs>
<clipPath id="clip0_101_943">
<rect width="24" height="24" fill="white"/>
</clipPath>
</defs>
</svg>
