<svg width="14" height="15" viewBox="0 0 14 15" fill="none" xmlns="http://www.w3.org/2000/svg">
<path d="M9.77082 3.01913V2.10913C9.77082 1.86996 9.57249 1.67163 9.33332 1.67163C9.09416 1.67163 8.89582 1.86996 8.89582 2.10913V2.98413H5.10416V2.10913C5.10416 1.86996 4.90582 1.67163 4.66666 1.67163C4.42749 1.67163 4.22916 1.86996 4.22916 2.10913V3.01913C2.65416 3.16496 1.88999 4.10413 1.77332 5.4983C1.76166 5.66746 1.90166 5.80746 2.06499 5.80746H11.935C12.1042 5.80746 12.2442 5.66163 12.2267 5.4983C12.11 4.10413 11.3458 3.16496 9.77082 3.01913Z" fill="white"/>
<path d="M11.6667 6.68262H2.33333C2.0125 6.68262 1.75 6.94512 1.75 7.26595V10.8593C1.75 12.6093 2.625 13.7759 4.66667 13.7759H9.33333C11.375 13.7759 12.25 12.6093 12.25 10.8593V7.26595C12.25 6.94512 11.9875 6.68262 11.6667 6.68262ZM5.3725 11.5651C5.34333 11.5884 5.31417 11.6176 5.285 11.6351C5.25 11.6585 5.215 11.676 5.18 11.6876C5.145 11.7051 5.11 11.7168 5.075 11.7226C5.03417 11.7284 4.99917 11.7343 4.95833 11.7343C4.8825 11.7343 4.80667 11.7168 4.73667 11.6876C4.66083 11.6585 4.6025 11.6176 4.54417 11.5651C4.43917 11.4543 4.375 11.3026 4.375 11.151C4.375 10.9993 4.43917 10.8476 4.54417 10.7368C4.6025 10.6843 4.66083 10.6435 4.73667 10.6143C4.84167 10.5676 4.95833 10.556 5.075 10.5793C5.11 10.5851 5.145 10.5968 5.18 10.6143C5.215 10.626 5.25 10.6435 5.285 10.6668C5.31417 10.6901 5.34333 10.7135 5.3725 10.7368C5.4775 10.8476 5.54167 10.9993 5.54167 11.151C5.54167 11.3026 5.4775 11.4543 5.3725 11.5651ZM5.3725 9.52345C5.26167 9.62845 5.11 9.69262 4.95833 9.69262C4.80667 9.69262 4.655 9.62845 4.54417 9.52345C4.43917 9.41262 4.375 9.26095 4.375 9.10928C4.375 8.95762 4.43917 8.80595 4.54417 8.69512C4.7075 8.53178 4.96417 8.47928 5.18 8.57262C5.25583 8.60178 5.32 8.64262 5.3725 8.69512C5.4775 8.80595 5.54167 8.95762 5.54167 9.10928C5.54167 9.26095 5.4775 9.41262 5.3725 9.52345ZM7.41417 11.5651C7.30333 11.6701 7.15167 11.7343 7 11.7343C6.84833 11.7343 6.69667 11.6701 6.58583 11.5651C6.48083 11.4543 6.41667 11.3026 6.41667 11.151C6.41667 10.9993 6.48083 10.8476 6.58583 10.7368C6.80167 10.521 7.19833 10.521 7.41417 10.7368C7.51917 10.8476 7.58333 10.9993 7.58333 11.151C7.58333 11.3026 7.51917 11.4543 7.41417 11.5651ZM7.41417 9.52345C7.385 9.54678 7.35583 9.57012 7.32667 9.59345C7.29167 9.61678 7.25667 9.63428 7.22167 9.64595C7.18667 9.66345 7.15167 9.67512 7.11667 9.68095C7.07583 9.68678 7.04083 9.69262 7 9.69262C6.84833 9.69262 6.69667 9.62845 6.58583 9.52345C6.48083 9.41262 6.41667 9.26095 6.41667 9.10928C6.41667 8.95762 6.48083 8.80595 6.58583 8.69512C6.63833 8.64262 6.7025 8.60178 6.77833 8.57262C6.99417 8.47928 7.25083 8.53178 7.41417 8.69512C7.51917 8.80595 7.58333 8.95762 7.58333 9.10928C7.58333 9.26095 7.51917 9.41262 7.41417 9.52345ZM9.45583 11.5651C9.345 11.6701 9.19333 11.7343 9.04167 11.7343C8.89 11.7343 8.73833 11.6701 8.6275 11.5651C8.5225 11.4543 8.45833 11.3026 8.45833 11.151C8.45833 10.9993 8.5225 10.8476 8.6275 10.7368C8.84333 10.521 9.24 10.521 9.45583 10.7368C9.56083 10.8476 9.625 10.9993 9.625 11.151C9.625 11.3026 9.56083 11.4543 9.45583 11.5651ZM9.45583 9.52345C9.42667 9.54678 9.3975 9.57012 9.36833 9.59345C9.33333 9.61678 9.29833 9.63428 9.26333 9.64595C9.22833 9.66345 9.19333 9.67512 9.15833 9.68095C9.1175 9.68678 9.07667 9.69262 9.04167 9.69262C8.89 9.69262 8.73833 9.62845 8.6275 9.52345C8.5225 9.41262 8.45833 9.26095 8.45833 9.10928C8.45833 8.95762 8.5225 8.80595 8.6275 8.69512C8.68583 8.64262 8.74417 8.60178 8.82 8.57262C8.925 8.52595 9.04167 8.51428 9.15833 8.53762C9.19333 8.54345 9.22833 8.55512 9.26333 8.57262C9.29833 8.58428 9.33333 8.60178 9.36833 8.62512C9.3975 8.64845 9.42667 8.67178 9.45583 8.69512C9.56083 8.80595 9.625 8.95762 9.625 9.10928C9.625 9.26095 9.56083 9.41262 9.45583 9.52345Z" fill="white"/>
</svg>
