<svg width="18" height="18" viewBox="0 0 18 18" fill="none" xmlns="http://www.w3.org/2000/svg">
<path d="M12.4916 0.666626H5.50829C2.47496 0.666626 0.666626 2.47496 0.666626 5.50829V12.4833C0.666626 15.525 2.47496 17.3333 5.50829 17.3333H12.4833C15.5166 17.3333 17.325 15.525 17.325 12.4916V5.50829C17.3333 2.47496 15.525 0.666626 12.4916 0.666626ZM12.9833 7.08329L8.25829 11.8083C8.14163 11.925 7.98329 11.9916 7.81663 11.9916C7.64996 11.9916 7.49163 11.925 7.37496 11.8083L5.01663 9.44996C4.77496 9.20829 4.77496 8.80829 5.01663 8.56663C5.25829 8.32496 5.65829 8.32496 5.89996 8.56663L7.81663 10.4833L12.1 6.19996C12.3416 5.95829 12.7416 5.95829 12.9833 6.19996C13.225 6.44163 13.225 6.83329 12.9833 7.08329Z" fill="#543E92"/>
</svg>
