<svg width="14" height="15" viewBox="0 0 14 15" fill="none" xmlns="http://www.w3.org/2000/svg">
<path d="M6.99999 2.10913C3.78582 2.10913 1.16666 4.7283 1.16666 7.94246C1.16666 11.1566 3.78582 13.7758 6.99999 13.7758C10.2142 13.7758 12.8333 11.1566 12.8333 7.94246C12.8333 4.7283 10.2142 2.10913 6.99999 2.10913ZM9.53749 10.025C9.45582 10.165 9.30999 10.2408 9.15832 10.2408C9.08249 10.2408 9.00666 10.2233 8.93666 10.1766L7.12832 9.09746C6.67916 8.82913 6.34666 8.23996 6.34666 7.7208V5.32913C6.34666 5.08996 6.54499 4.89163 6.78416 4.89163C7.02332 4.89163 7.22166 5.08996 7.22166 5.32913V7.7208C7.22166 7.9308 7.39666 8.23996 7.57749 8.34496L9.38582 9.42413C9.59582 9.54663 9.66582 9.81496 9.53749 10.025Z" fill="white"/>
</svg>
