<svg width="20" height="20" viewBox="0 0 20 20" fill="none" xmlns="http://www.w3.org/2000/svg">
<path d="M17.5 18.3334H2.5C2.15833 18.3334 1.875 18.05 1.875 17.7084C1.875 17.3667 2.15833 17.0834 2.5 17.0834H17.5C17.8417 17.0834 18.125 17.3667 18.125 17.7084C18.125 18.05 17.8417 18.3334 17.5 18.3334Z" fill="white"/>
<path d="M15.8501 2.89993C14.2334 1.28326 12.6501 1.24159 10.9917 2.89993L9.98339 3.90826C9.90006 3.99159 9.86672 4.12493 9.90006 4.24159C10.5334 6.44993 12.3001 8.21659 14.5084 8.84993C14.5417 8.85826 14.5751 8.86659 14.6084 8.86659C14.7001 8.86659 14.7834 8.83326 14.8501 8.76659L15.8501 7.75826C16.6751 6.94159 17.0751 6.14993 17.0751 5.34993C17.0834 4.52493 16.6834 3.72493 15.8501 2.89993Z" fill="white"/>
<path d="M13.0084 9.60829C12.7667 9.49163 12.5334 9.37496 12.3084 9.24163C12.1251 9.13329 11.9501 9.01663 11.7751 8.89163C11.6334 8.79996 11.4667 8.66663 11.3084 8.53329C11.2917 8.52496 11.2334 8.47496 11.1667 8.40829C10.8917 8.17496 10.5834 7.87496 10.3084 7.54163C10.2834 7.52496 10.2417 7.46663 10.1834 7.39163C10.1001 7.29163 9.95839 7.12496 9.83339 6.93329C9.73339 6.80829 9.61672 6.62496 9.50839 6.44163C9.37506 6.21663 9.25839 5.99163 9.14172 5.75829C9.12407 5.72046 9.10699 5.68282 9.09042 5.64541C8.96745 5.36764 8.60525 5.28644 8.39045 5.50123L3.61672 10.275C3.50839 10.3833 3.40839 10.5916 3.38339 10.7333L2.93339 13.925C2.85006 14.4916 3.00839 15.025 3.35839 15.3833C3.65839 15.675 4.07506 15.8333 4.52506 15.8333C4.62506 15.8333 4.72506 15.825 4.82506 15.8083L8.02506 15.3583C8.17506 15.3333 8.38339 15.2333 8.48339 15.125L13.2512 10.3572C13.4674 10.1409 13.3858 9.76969 13.1045 9.64964C13.0728 9.63612 13.0408 9.62235 13.0084 9.60829Z" fill="white"/>
</svg>
