<svg width="25" height="25" viewBox="0 0 25 25" fill="none" xmlns="http://www.w3.org/2000/svg">
<path fill-rule="evenodd" clip-rule="evenodd" d="M20.3499 3.29374C19.301 2.34026 17.6992 2.34024 16.6503 3.29368C16.6015 3.33805 16.5497 3.38991 16.4824 3.45724L16.4698 3.46981L9.22318 10.7163L9.17909 10.7604C8.75449 11.1849 8.48069 11.4587 8.25499 11.7726C8.05502 12.0508 7.88572 12.3498 7.75007 12.6644C7.59697 13.0194 7.50311 13.3951 7.35756 13.9776L7.34245 14.0381L6.77239 16.3183C6.7085 16.5738 6.78338 16.8442 6.96967 17.0305C7.15596 17.2168 7.42632 17.2917 7.6819 17.2278L9.96213 16.6577L10.0226 16.6426C10.6051 16.497 10.9807 16.4032 11.3358 16.2501C11.6504 16.1144 11.9494 15.9452 12.2276 15.7452C12.5415 15.5195 12.8152 15.2457 13.2397 14.8211L13.2838 14.777L20.5304 7.53043L20.5429 7.51791L20.5429 7.5179C20.6103 7.45056 20.6621 7.39871 20.7065 7.3499C21.66 6.30103 21.66 4.6993 20.7066 3.65042C20.6622 3.60163 20.6104 3.54981 20.5431 3.48253L20.543 3.48247L20.5304 3.46987L20.5179 3.4573L20.5178 3.45727C20.4505 3.38995 20.3987 3.3381 20.3499 3.29374ZM4.5 20.7502C4.08579 20.7502 3.75 21.086 3.75 21.5002C3.75 21.9144 4.08579 22.2502 4.5 22.2502H20.5C20.9142 22.2502 21.25 21.9144 21.25 21.5002C21.25 21.086 20.9142 20.7502 20.5 20.7502H4.5Z" fill="#3B5DA0"/>
</svg>
