<svg width="20" height="20" viewBox="0 0 20 20" fill="none" xmlns="http://www.w3.org/2000/svg">
<path opacity="0.4" d="M2.29167 15.5417C1.95 15.5417 1.66667 15.2584 1.66667 14.9167V10.1667C1.625 7.90837 2.46667 5.77504 4.03333 4.17504C5.6 2.58337 7.7 1.70837 9.95833 1.70837C14.575 1.70837 18.3333 5.46671 18.3333 10.0834V14.8334C18.3333 15.175 18.05 15.4584 17.7083 15.4584C17.3667 15.4584 17.0833 15.175 17.0833 14.8334V10.0834C17.0833 6.15837 13.8917 2.95837 9.95833 2.95837C8.03333 2.95837 6.25 3.70004 4.925 5.05004C3.59167 6.40837 2.88333 8.21671 2.91667 10.15V14.9084C2.91667 15.2584 2.64167 15.5417 2.29167 15.5417Z" fill="#FAFAFA"/>
<path d="M4.94999 10.375H4.84166C3.09166 10.375 1.66666 11.8 1.66666 13.55V15.1167C1.66666 16.8667 3.09166 18.2917 4.84166 18.2917H4.94999C6.69999 18.2917 8.12499 16.8667 8.12499 15.1167V13.55C8.12499 11.8 6.69999 10.375 4.94999 10.375Z" fill="#FAFAFA"/>
<path d="M15.1583 10.375H15.05C13.3 10.375 11.875 11.8 11.875 13.55V15.1167C11.875 16.8667 13.3 18.2917 15.05 18.2917H15.1583C16.9083 18.2917 18.3333 16.8667 18.3333 15.1167V13.55C18.3333 11.8 16.9083 10.375 15.1583 10.375Z" fill="#FAFAFA"/>
</svg>
