<svg width="24" height="22" viewBox="0 0 24 22" fill="none" xmlns="http://www.w3.org/2000/svg">
<path d="M17.1428 0.571533H6.85711C5.91033 0.571533 5.14282 1.33905 5.14282 2.28582V10.8572C5.14282 11.804 5.91033 12.5715 6.85711 12.5715H17.1428C18.0896 12.5715 18.8571 11.804 18.8571 10.8572V2.28582C18.8571 1.33905 18.0896 0.571533 17.1428 0.571533Z" stroke="white" stroke-linecap="round" stroke-linejoin="round"/>
<path d="M5.14289 5.71436H2.57146C2.11681 5.71436 1.68077 5.89497 1.35928 6.21646C1.03779 6.53795 0.857178 6.97398 0.857178 7.42864V15.1429C0.857178 15.5976 1.03779 16.0336 1.35928 16.3551C1.68077 16.6766 2.11681 16.8572 2.57146 16.8572H21.4286C21.8833 16.8572 22.3193 16.6766 22.6408 16.3551C22.9623 16.0336 23.1429 15.5976 23.1429 15.1429V7.42864C23.1429 6.97398 22.9623 6.53795 22.6408 6.21646C22.3193 5.89497 21.8833 5.71436 21.4286 5.71436H18.8572M6.85718 16.8572L6.00003 21.1429M17.1429 16.8572L18 21.1429" stroke="white" stroke-linecap="round" stroke-linejoin="round"/>
</svg>
