<svg width="24" height="24" viewBox="0 0 24 24" fill="none" xmlns="http://www.w3.org/2000/svg">
<path d="M17.1428 2.57153H6.85711C5.91033 2.57153 5.14282 3.33905 5.14282 4.28582V12.8572C5.14282 13.804 5.91033 14.5715 6.85711 14.5715H17.1428C18.0896 14.5715 18.8571 13.804 18.8571 12.8572V4.28582C18.8571 3.33905 18.0896 2.57153 17.1428 2.57153Z" stroke="white" stroke-linecap="round" stroke-linejoin="round"/>
<path d="M5.14289 7.71436H2.57146C2.11681 7.71436 1.68077 7.89497 1.35928 8.21646C1.03779 8.53795 0.857178 8.97398 0.857178 9.42864V17.1429C0.857178 17.5976 1.03779 18.0336 1.35928 18.3551C1.68077 18.6766 2.11681 18.8572 2.57146 18.8572H21.4286C21.8833 18.8572 22.3193 18.6766 22.6408 18.3551C22.9623 18.0336 23.1429 17.5976 23.1429 17.1429V9.42864C23.1429 8.97398 22.9623 8.53795 22.6408 8.21646C22.3193 7.89497 21.8833 7.71436 21.4286 7.71436H18.8572M6.85718 18.8572L6.00003 23.1429M17.1429 18.8572L18 23.1429" stroke="white" stroke-linecap="round" stroke-linejoin="round"/>
</svg>
