<svg width="160" height="56" viewBox="0 0 160 56" fill="none" xmlns="http://www.w3.org/2000/svg">
<rect x="0.5" y="0.5" width="158.5" height="55" rx="7.5" stroke="#232323"/>
<g clip-path="url(#clip0_399_2772)">
<path d="M73.2968 30.4182L72.4898 33.4306L69.5405 33.493C68.6591 31.8582 68.1592 29.9878 68.1592 28.0001C68.1592 26.078 68.6266 24.2655 69.4552 22.6695H69.4558L72.0815 23.1509L73.2317 25.7609C72.991 26.4627 72.8598 27.2161 72.8598 28.0001C72.8599 28.8509 73.014 29.6661 73.2968 30.4182Z" fill="#FBBB00"/>
<path d="M91.1384 25.8344C91.2716 26.5356 91.341 27.2597 91.341 27.9998C91.341 28.8296 91.2537 29.6391 91.0875 30.4199C90.5233 33.0769 89.0489 35.3969 87.0065 37.0388L87.0059 37.0381L83.6987 36.8694L83.2306 33.9474C84.5858 33.1527 85.6449 31.9088 86.2028 30.4199H80.0049V25.8344H86.2933H91.1384Z" fill="#518EF8"/>
<path d="M87.0054 37.0384L87.006 37.0391C85.0197 38.6357 82.4964 39.591 79.7496 39.591C75.3355 39.591 71.4978 37.1238 69.54 33.493L73.2963 30.4182C74.2751 33.0306 76.7952 34.8903 79.7496 34.8903C81.0195 34.8903 82.2092 34.547 83.23 33.9477L87.0054 37.0384Z" fill="#28B446"/>
<path d="M87.1484 19.0775L83.3935 22.1517C82.3369 21.4912 81.088 21.1097 79.75 21.1097C76.7287 21.1097 74.1615 23.0547 73.2317 25.7608L69.4557 22.6694H69.4551C71.3841 18.9502 75.2703 16.4091 79.75 16.4091C82.5624 16.4091 85.141 17.4109 87.1484 19.0775Z" fill="#F14336"/>
</g>
<defs>
<clipPath id="clip0_399_2772">
<rect width="23.1818" height="23.1818" fill="white" transform="translate(68.1592 16.4091)"/>
</clipPath>
</defs>
</svg>
