<svg width="13" height="12" viewBox="0 0 13 12" fill="none" xmlns="http://www.w3.org/2000/svg">
<path opacity="0.4" d="M9.26502 3.885C9.23002 3.88 9.19502 3.88 9.16002 3.885C8.38502 3.86 7.77002 3.225 7.77002 2.445C7.77002 1.65 8.41502 1 9.21502 1C10.01 1 10.66 1.645 10.66 2.445C10.655 3.225 10.04 3.86 9.26502 3.885Z" fill="white"/>
<path opacity="0.4" d="M10.895 7.34995C10.335 7.72495 9.54999 7.86495 8.82499 7.76995C9.01499 7.35995 9.11499 6.90496 9.11999 6.42496C9.11999 5.92496 9.00999 5.44996 8.79999 5.03496C9.53999 4.93496 10.325 5.07495 10.89 5.44995C11.68 5.96995 11.68 6.82495 10.895 7.34995Z" fill="white"/>
<path opacity="0.4" d="M3.72001 3.885C3.75501 3.88 3.79001 3.88 3.82501 3.885C4.60001 3.86 5.21501 3.225 5.21501 2.445C5.21501 1.65 4.57001 1 3.77001 1C2.97501 1 2.32501 1.645 2.32501 2.445C2.33001 3.225 2.94501 3.86 3.72001 3.885Z" fill="white"/>
<path opacity="0.4" d="M3.775 6.42505C3.775 6.91005 3.88 7.37005 4.07 7.78505C3.365 7.86005 2.63 7.71005 2.09 7.35505C1.3 6.83005 1.3 5.97505 2.09 5.45005C2.625 5.09005 3.38 4.94505 4.09 5.02505C3.885 5.44505 3.775 5.92005 3.775 6.42505Z" fill="white"/>
<path d="M6.56002 7.935C6.52002 7.93 6.47503 7.93 6.43003 7.935C5.51003 7.905 4.77502 7.15 4.77502 6.22C4.77502 5.27 5.54003 4.5 6.49503 4.5C7.44503 4.5 8.21502 5.27 8.21502 6.22C8.21502 7.15 7.48502 7.905 6.56002 7.935Z" fill="white"/>
<path d="M4.93502 8.96995C4.18002 9.47495 4.18002 10.3049 4.93502 10.8049C5.79502 11.3799 7.20503 11.3799 8.06503 10.8049C8.82003 10.2999 8.82003 9.46995 8.06503 8.96995C7.21003 8.39495 5.80002 8.39495 4.93502 8.96995Z" fill="white"/>
</svg>
