<svg width="14" height="14" viewBox="0 0 14 14" fill="none" xmlns="http://www.w3.org/2000/svg">
<path fill-rule="evenodd" clip-rule="evenodd" d="M6.70835 0.729126H6.68912C5.75281 0.729124 5.02403 0.729122 4.43889 0.775619C3.84486 0.822823 3.36156 0.919989 2.92518 1.13519C2.14779 1.51856 1.51862 2.14772 1.13525 2.92511C0.92005 3.3615 0.822884 3.8448 0.77568 4.43883C0.729183 5.02397 0.729185 5.75275 0.729187 6.68906V6.7083V7.23329L0.729187 7.25309C0.729185 8.21643 0.729183 8.96625 0.778325 9.56771C0.82822 10.1784 0.930948 10.6746 1.15835 11.1209C1.53585 11.8618 2.13821 12.4641 2.8791 12.8416C3.3254 13.069 3.82158 13.1718 4.43227 13.2217C4.45031 13.2231 4.46849 13.2246 4.48681 13.2259C5.22116 13.2828 5.96013 13.2781 6.69752 13.2734C6.87677 13.2722 7.05593 13.2711 7.2349 13.2708H7.29169H7.3109H7.31092C8.24723 13.2708 8.97602 13.2708 9.56115 13.2243C10.1552 13.1771 10.6385 13.0799 11.0749 12.8647C11.8523 12.4814 12.4814 11.8522 12.8648 11.0748C13.08 10.6384 13.1772 10.1551 13.2244 9.56109C13.2709 8.97596 13.2709 8.24717 13.2709 7.31086V7.31084V7.29163V6.99996C13.2709 6.75834 13.075 6.56246 12.8334 6.56246C12.5917 6.56246 12.3959 6.75834 12.3959 6.99996V7.29163C12.3959 8.25122 12.3955 8.94534 12.3521 9.49178C12.3517 9.49724 12.3512 9.50268 12.3508 9.5081L11.6935 8.85084C11.2475 8.4048 11.0245 8.18178 10.7689 8.09416C10.5237 8.01008 10.2574 8.01008 10.0122 8.09416C9.75662 8.18178 9.5336 8.4048 9.08756 8.85084C8.8675 9.07091 8.75746 9.18094 8.63112 9.22486C8.50985 9.26702 8.37806 9.26799 8.25618 9.22763C8.1292 9.18558 8.01756 9.07718 7.79427 8.86039L6.56503 7.66695L6.56503 7.66694C6.10245 7.21784 5.87116 6.99328 5.60651 6.91031C5.37366 6.8373 5.12379 6.83915 4.89205 6.91558C4.62864 7.00246 4.4007 7.23041 3.94481 7.6863L1.70043 9.93068C1.67991 9.79944 1.66343 9.65565 1.65042 9.49646C1.60453 8.93478 1.60419 8.2206 1.60419 7.23329V6.7083C1.60419 5.7487 1.60451 5.05458 1.64793 4.50814C1.69096 3.96661 1.77427 3.60766 1.92001 3.31212C2.21819 2.70748 2.70754 2.21813 3.31218 1.91995C3.60772 1.77421 3.96667 1.6909 4.50821 1.64787C5.05464 1.60445 5.74876 1.60413 6.70835 1.60413H7.00002C7.24165 1.60413 7.43752 1.40825 7.43752 1.16663C7.43752 0.925001 7.24165 0.729126 7.00002 0.729126H6.70835ZM10.8094 1.4406C10.6385 1.26975 10.3615 1.26975 10.1907 1.4406L8.73233 2.89893C8.56147 3.06979 8.56147 3.3468 8.73233 3.51765C8.90318 3.68851 9.18019 3.68851 9.35105 3.51765L10.0625 2.80618V5.24996C10.0625 5.49158 10.2584 5.68746 10.5 5.68746C10.7416 5.68746 10.9375 5.49158 10.9375 5.24996V2.80618L11.649 3.51765C11.8199 3.68851 12.0969 3.68851 12.2677 3.51765C12.4386 3.3468 12.4386 3.06979 12.2677 2.89893L10.8094 1.4406Z" fill="#C4D0E7"/>
</svg>
