<svg width="24" height="24" viewBox="0 0 24 24" fill="none" xmlns="http://www.w3.org/2000/svg">
<path d="M2.4 18L5.856 6.8H8.224L11.68 18H10.288L9.424 15.168H4.656L3.792 18H2.4ZM4.992 13.952H9.072L7.152 7.616H6.928L4.992 13.952ZM16.0061 18.224C15.4621 18.224 14.9661 18.128 14.5181 17.936C14.0701 17.744 13.7181 17.4667 13.4621 17.104C13.2061 16.7413 13.0781 16.2987 13.0781 15.776C13.0781 15.2427 13.2061 14.8053 13.4621 14.464C13.7181 14.112 14.0701 13.8507 14.5181 13.68C14.9661 13.4987 15.4675 13.408 16.0221 13.408H18.6621V12.832C18.6621 12.2773 18.4968 11.84 18.1661 11.52C17.8461 11.2 17.3661 11.04 16.7261 11.04C16.0968 11.04 15.6061 11.1947 15.2541 11.504C14.9021 11.8027 14.6621 12.208 14.5341 12.72L13.3501 12.336C13.4781 11.8987 13.6808 11.504 13.9581 11.152C14.2355 10.7893 14.6035 10.5013 15.0621 10.288C15.5315 10.064 16.0915 9.952 16.7421 9.952C17.7448 9.952 18.5235 10.2133 19.0781 10.736C19.6328 11.248 19.9101 11.9733 19.9101 12.912V16.448C19.9101 16.768 20.0595 16.928 20.3581 16.928H21.0781V18H19.9741C19.6221 18 19.3395 17.904 19.1261 17.712C18.9128 17.5093 18.8061 17.2427 18.8061 16.912V16.832H18.6141C18.4968 17.0347 18.3368 17.248 18.1341 17.472C17.9421 17.6853 17.6755 17.8613 17.3341 18C16.9928 18.1493 16.5501 18.224 16.0061 18.224ZM16.1501 17.136C16.8968 17.136 17.4995 16.9173 17.9581 16.48C18.4275 16.032 18.6621 15.408 18.6621 14.608V14.432H16.0701C15.5688 14.432 15.1528 14.544 14.8221 14.768C14.5021 14.9813 14.3421 15.3067 14.3421 15.744C14.3421 16.1813 14.5075 16.5227 14.8381 16.768C15.1795 17.0133 15.6168 17.136 16.1501 17.136Z" fill="white"/>
</svg>
