<svg width="20" height="21" viewBox="0 0 20 21" fill="none" xmlns="http://www.w3.org/2000/svg">
<path d="M14.1667 18.6667V16.1667M14.1667 16.1667H11.6667V18.6667M14.1667 16.1667H5.83333M14.1667 16.1667C16.0076 16.1667 17.5 14.6743 17.5 12.8333V8.66667C17.5 6.36548 15.6345 4.5 13.3333 4.5H6.66667M5.83333 16.1667H7.5C9.34095 16.1667 10.8333 14.6743 10.8333 12.8333V8.66667C10.8333 6.36548 8.96785 4.5 6.66667 4.5M5.83333 16.1667C3.99238 16.1667 2.5 14.6743 2.5 12.8333V8.66667C2.5 6.36548 4.36548 4.5 6.66667 4.5M13.3333 6.16667V3.66667C13.3333 2.74619 14.0795 2 15 2H15.8333" stroke="white" stroke-width="1.25" stroke-linecap="round" stroke-linejoin="round"/>
</svg>
