<svg width="20" height="20" viewBox="0 0 20 20" fill="none" xmlns="http://www.w3.org/2000/svg">
<path d="M12.5345 16.3683L12.5346 16.3682L12.5236 16.3673C12.1174 16.3361 11.6487 16.2572 11.1578 16.1365L11.1548 16.1358L9.75484 15.8024L9.75421 15.8023C7.88016 15.3592 6.73246 14.6628 6.13438 13.6977C5.53642 12.7327 5.42502 11.3976 5.86397 9.52801L5.86405 9.52767L6.68072 6.036L6.68092 6.03511C6.85945 5.2642 7.06675 4.65598 7.31434 4.16078L7.31437 4.1608L7.31664 4.15612C7.97684 2.79349 8.91452 2.20203 9.90064 1.98331C10.9142 1.75848 12.0114 1.92109 12.9713 2.14672L12.9719 2.14686L14.363 2.47172C14.3631 2.47174 14.3632 2.47176 14.3632 2.47178C16.2625 2.91823 17.3708 3.60313 17.9792 4.57736C18.5799 5.55232 18.7071 6.84801 18.2611 8.74577L18.261 8.746L17.4444 12.2291C17.4444 12.2292 17.4443 12.2293 17.4443 12.2293C17.0959 13.7121 16.571 14.7488 15.8799 15.4138C15.1996 16.0683 14.32 16.3994 13.175 16.3994C12.9693 16.3994 12.759 16.3915 12.5345 16.3683ZM7.08633 6.12793L7.08595 6.12955L6.26942 9.62062C6.26939 9.62077 6.26935 9.62092 6.26931 9.62108C5.89186 11.2245 5.88886 12.4963 6.49488 13.4732C7.10059 14.4497 8.24237 15.0148 9.84516 15.3964L11.2441 15.7295C11.2444 15.7296 11.2446 15.7296 11.2448 15.7297C11.7136 15.8425 12.158 15.9124 12.5614 15.9477C13.7596 16.0662 14.738 15.8696 15.4986 15.2075C16.2421 14.5602 16.7076 13.5262 17.0308 12.1357C17.0308 12.1356 17.0308 12.1355 17.0308 12.1354L17.8473 8.65288L17.8474 8.65239C18.2297 7.01275 18.21 5.74915 17.621 4.79692C17.0319 3.84456 15.9111 3.25973 14.2612 2.87698C14.2611 2.87695 14.2609 2.87692 14.2608 2.87689L12.8726 2.5527C12.8721 2.55259 12.8716 2.55247 12.8712 2.55236C12.1577 2.38053 11.5078 2.29111 10.9333 2.29111C10.1792 2.29111 9.52772 2.44746 8.9765 2.79779C8.42578 3.14781 8.01118 3.66855 7.69112 4.33561C7.45814 4.81955 7.2578 5.40776 7.08633 6.12793Z" fill="white" stroke="white" stroke-width="0.833333"/>
<path d="M2.95471 14.4213L2.95482 14.4216C3.38067 15.7397 3.91153 16.6623 4.55667 17.2542C5.19029 17.8354 5.96334 18.1247 6.94167 18.1247C7.63618 18.1247 8.42513 17.9858 9.35595 17.6947L10.6697 17.2623L10.6716 17.2617C11.5224 16.9862 12.1739 16.6849 12.6804 16.3398C12.7511 16.2904 12.7847 16.2053 12.7647 16.1181C12.7348 16.0235 12.6598 15.9651 12.5705 15.9564C12.5701 15.9563 12.5698 15.9563 12.5694 15.9563L12.6083 15.5414C12.225 15.5081 11.8 15.4414 11.35 15.3331L9.95 14.9997C6.8 14.2497 5.94167 12.8747 6.68334 9.72474L2.95471 14.4213ZM2.95471 14.4213L1.8882 11.1301C1.88818 11.13 1.88816 11.13 1.88814 11.1299C1.31116 9.34201 1.31272 8.03804 1.81282 7.05785C2.31281 6.07786 3.36565 5.31472 5.14495 4.73783C5.14502 4.73781 5.14509 4.73778 5.14517 4.73776L6.4586 4.31381C6.89035 4.181 7.19179 4.09699 7.45374 4.05208L7.46077 4.05087L7.46775 4.04943C7.55024 4.03236 7.61983 4.06138 7.66493 4.1224C7.7149 4.19001 7.72474 4.27652 7.68989 4.35506C7.45671 4.83178 7.25674 5.42032 7.09393 6.13968L6.27776 9.62924C6.27774 9.62932 6.27772 9.6294 6.2777 9.62948M2.95471 14.4213L6.2777 9.62948M6.2777 9.62948C5.90019 11.233 5.89717 12.5048 6.50322 13.4819C7.10892 14.4583 8.2507 15.0235 9.85349 15.4051L11.2525 15.7382C11.2526 15.7382 11.2527 15.7382 11.2528 15.7382L6.2777 9.62948ZM6.88001 5.31057L7.12946 4.53451L6.35434 4.78687L5.28058 5.13647C5.28038 5.13654 5.28018 5.1366 5.27998 5.13666C3.76463 5.62488 2.70665 6.25969 2.19954 7.25544C1.69281 8.25045 1.79874 9.48333 2.28663 11.0022L2.28696 11.0032L3.35363 14.2948L3.35373 14.2952C3.84613 15.8106 4.48303 16.8699 5.47789 17.379C6.4729 17.8882 7.70385 17.7845 9.21942 17.2963L9.21943 17.2963L9.22193 17.2955L10.5386 16.8622L10.5401 16.8617C10.5712 16.8513 10.5992 16.8411 10.6216 16.833C10.645 16.8244 10.6629 16.818 10.6818 16.8117L12.0738 16.3477L10.6456 16.0109L9.76254 15.8026C9.76247 15.8026 9.76239 15.8025 9.76232 15.8025C7.8884 15.3594 6.74077 14.6631 6.14272 13.698C5.54476 12.733 5.43336 11.3979 5.87231 9.52831L5.87239 9.52796L6.68905 6.0363L6.68909 6.03631L6.69038 6.03044C6.74672 5.77289 6.81013 5.52798 6.88001 5.31057Z" fill="white" stroke="white" stroke-width="0.833333"/>
<path d="M10.4774 7.3126L10.4774 7.3126L10.4761 7.31225C10.3711 7.28601 10.3004 7.17442 10.3292 7.0592C10.3555 6.95437 10.4667 6.88378 10.5818 6.91225C10.582 6.91229 10.5821 6.91233 10.5823 6.91237L14.6226 7.93703L14.624 7.93737C14.7289 7.96362 14.7996 8.07521 14.7708 8.19042L14.7701 8.19331C14.7507 8.27311 14.6664 8.34148 14.575 8.34148C14.5639 8.34148 14.5529 8.34004 14.4976 8.33214L10.4774 7.3126Z" fill="white" stroke="white" stroke-width="0.833333"/>
<path d="M12.1333 11.5754C12.0833 11.5754 12.0333 11.5671 11.975 11.5587L9.55001 10.9421C9.21667 10.8587 9.01667 10.5171 9.10001 10.1837C9.18334 9.8504 9.52501 9.6504 9.85834 9.73373L12.2833 10.3504C12.6167 10.4337 12.8167 10.7754 12.7333 11.1087C12.6667 11.3921 12.4167 11.5754 12.1333 11.5754Z" fill="white"/>
</svg>
