<svg width="24" height="24" viewBox="0 0 24 24" fill="none" xmlns="http://www.w3.org/2000/svg">
<g clip-path="url(#clip0_115_1357)">
<path d="M19.3 8.91998V14.07C19.3 17.15 17.54 18.47 14.9 18.47H6.10995C5.65995 18.47 5.22996 18.43 4.82996 18.34C4.57996 18.3 4.33996 18.23 4.11996 18.15C2.61996 17.59 1.70996 16.29 1.70996 14.07V8.91998C1.70996 5.83998 3.46995 4.52002 6.10995 4.52002H14.9C17.14 4.52002 18.75 5.47001 19.18 7.64001C19.25 8.04001 19.3 8.44998 19.3 8.91998Z" stroke="white" stroke-width="1.5" stroke-miterlimit="10" stroke-linecap="round" stroke-linejoin="round"/>
<path d="M22.3011 11.9201V17.0701C22.3011 20.1501 20.5411 21.4701 17.9011 21.4701H9.11105C8.37105 21.4701 7.70106 21.3701 7.12106 21.1501C5.93106 20.7101 5.12105 19.8001 4.83105 18.3401C5.23105 18.4301 5.66105 18.4701 6.11105 18.4701H14.9011C17.5411 18.4701 19.3011 17.1501 19.3011 14.0701V8.9201C19.3011 8.4501 19.2611 8.03014 19.1811 7.64014C21.0811 8.04014 22.3011 9.38011 22.3011 11.9201Z" stroke="white" stroke-width="1.5" stroke-miterlimit="10" stroke-linecap="round" stroke-linejoin="round"/>
<path d="M10.4984 14.1399C11.9564 14.1399 13.1384 12.9579 13.1384 11.4999C13.1384 10.0418 11.9564 8.85986 10.4984 8.85986C9.04038 8.85986 7.8584 10.0418 7.8584 11.4999C7.8584 12.9579 9.04038 14.1399 10.4984 14.1399Z" stroke="white" stroke-width="1.5" stroke-miterlimit="10" stroke-linecap="round" stroke-linejoin="round"/>
<path d="M4.78003 9.30005V13.7001" stroke="white" stroke-width="1.5" stroke-miterlimit="10" stroke-linecap="round" stroke-linejoin="round"/>
<path d="M16.2217 9.30029V13.7003" stroke="white" stroke-width="1.5" stroke-miterlimit="10" stroke-linecap="round" stroke-linejoin="round"/>
</g>
<defs>
<clipPath id="clip0_115_1357">
<rect width="24" height="24" fill="white"/>
</clipPath>
</defs>
</svg>
