<svg width="20" height="21" viewBox="0 0 20 21" fill="none" xmlns="http://www.w3.org/2000/svg">
<path d="M8.64619 2.93476L4.48134 4.7858C3.27665 5.32122 2.48166 6.52025 2.55832 7.83633C2.85801 12.9815 4.36472 15.2466 8.27982 17.8972C9.31698 18.5994 10.6841 18.6011 11.7205 17.8978C15.6477 15.2328 17.1004 12.9356 17.4265 7.85415C17.5115 6.52937 16.7152 5.31761 15.5021 4.77846L11.3538 2.93476C10.4919 2.5517 9.50807 2.5517 8.64619 2.93476Z" stroke="white" stroke-width="1.36364"/>
<path d="M12.5 10.6664C12.5 12.0471 11.3807 13.1664 9.99998 13.1664C8.61927 13.1664 7.49999 12.0471 7.49999 10.6664C7.49999 9.28569 8.61927 8.1664 9.99998 8.1664C11.3807 8.1664 12.5 9.28569 12.5 10.6664Z" stroke="white" stroke-width="1.36364"/>
</svg>
