<svg width="25" height="25" viewBox="0 0 25 25" fill="none" xmlns="http://www.w3.org/2000/svg">
<path d="M12.5 14.8801C13.8144 14.8801 14.88 13.8146 14.88 12.5001C14.88 11.1857 13.8144 10.1201 12.5 10.1201C11.1856 10.1201 10.12 11.1857 10.12 12.5001C10.12 13.8146 11.1856 14.8801 12.5 14.8801Z" fill="white"/>
<path d="M20.5 19.25C20.34 19.25 20.19 19.2 20.05 19.1C19.72 18.85 19.65 18.38 19.9 18.05C21.11 16.44 21.75 14.52 21.75 12.5C21.75 10.48 21.11 8.56003 19.9 6.95003C19.65 6.62003 19.72 6.15003 20.05 5.90003C20.38 5.65003 20.85 5.72003 21.1 6.05003C22.51 7.92003 23.25 10.15 23.25 12.5C23.25 14.85 22.51 17.08 21.1 18.95C20.95 19.15 20.73 19.25 20.5 19.25Z" fill="white"/>
<path d="M4.5 19.25C4.27 19.25 4.05 19.15 3.9 18.95C2.49 17.08 1.75 14.85 1.75 12.5C1.75 10.15 2.49 7.92003 3.9 6.05003C4.15 5.72003 4.62 5.65003 4.95 5.90003C5.28 6.15003 5.35 6.62003 5.1 6.95003C3.89 8.56003 3.25 10.48 3.25 12.5C3.25 14.52 3.89 16.44 5.1 18.05C5.35 18.38 5.28 18.85 4.95 19.1C4.82 19.2 4.66 19.25 4.5 19.25Z" fill="white"/>
<path d="M17.3 16.8499C17.14 16.8499 16.99 16.7999 16.85 16.6999C16.52 16.4499 16.45 15.9799 16.7 15.6499C17.39 14.7399 17.75 13.6499 17.75 12.4999C17.75 11.3499 17.39 10.2599 16.7 9.34993C16.45 9.01993 16.52 8.54993 16.85 8.29993C17.18 8.04993 17.65 8.11993 17.9 8.44993C18.78 9.62993 19.25 11.0299 19.25 12.4999C19.25 13.9699 18.78 15.3799 17.9 16.5499C17.75 16.7499 17.53 16.8499 17.3 16.8499Z" fill="white"/>
<path d="M7.7 16.8499C7.47 16.8499 7.25 16.7499 7.1 16.5499C6.22 15.3799 5.75 13.9699 5.75 12.4999C5.75 11.0299 6.22 9.61993 7.1 8.44993C7.35 8.11993 7.82 8.04993 8.15 8.29993C8.48 8.54993 8.55 9.01993 8.3 9.34993C7.61 10.2599 7.25 11.3499 7.25 12.4999C7.25 13.6499 7.61 14.7399 8.3 15.6499C8.55 15.9799 8.48 16.4499 8.15 16.6999C8.02 16.7999 7.86 16.8499 7.7 16.8499Z" fill="white"/>
</svg>
