<svg width="20" height="20" viewBox="0 0 20 20" fill="none" xmlns="http://www.w3.org/2000/svg">
<path opacity="0.4" d="M16.55 6.74158C16.55 6.86658 16.55 6.99158 16.5417 7.10825C15.2667 6.63325 13.7667 6.92491 12.7667 7.82491C12.0917 7.21658 11.2167 6.87491 10.2833 6.87491C8.23332 6.87491 6.56666 8.54992 6.56666 10.6166C6.56666 12.9749 7.74999 14.6999 8.88333 15.8166C8.79166 15.8082 8.71666 15.7916 8.64999 15.7666C6.49166 15.0249 1.66666 11.9582 1.66666 6.74158C1.66666 4.44158 3.51665 2.58325 5.79998 2.58325C7.15832 2.58325 8.35832 3.23324 9.10832 4.24158C9.86665 3.23324 11.0667 2.58325 12.4167 2.58325C14.7 2.58325 16.55 4.44158 16.55 6.74158Z" fill="#FAFAFA"/>
<path d="M15 7.9917C14.1083 7.9917 13.3 8.42504 12.8 9.09171C12.3 8.42504 11.5 7.9917 10.6 7.9917C9.08333 7.9917 7.85001 9.22504 7.85001 10.7584C7.85001 11.35 7.94167 11.8917 8.10834 12.3917C8.89167 14.8667 11.3 16.3417 12.4917 16.75C12.6583 16.8084 12.9333 16.8084 13.1083 16.75C14.3 16.3417 16.7083 14.8667 17.4917 12.3917C17.6583 11.8834 17.75 11.3417 17.75 10.7584C17.75 9.22504 16.5167 7.9917 15 7.9917Z" fill="#FAFAFA"/>
</svg>
