<svg width="22" height="22" viewBox="0 0 22 22" fill="none" xmlns="http://www.w3.org/2000/svg">
<path d="M10 12L11.5345 15.9899C12.5893 18.7326 13.1168 20.1039 13.825 20.4489C14.4375 20.7472 15.1598 20.7132 15.7415 20.3586C16.4142 19.9486 16.8104 18.5338 17.6027 15.7041L20.466 5.47824C20.9677 3.68672 21.2185 2.79096 20.9857 2.17628C20.7827 1.64035 20.3596 1.21724 19.8237 1.01427C19.209 0.78147 18.3133 1.03228 16.5217 1.53391L6.29584 4.39716C3.46617 5.18947 2.05133 5.58563 1.64136 6.25828C1.28678 6.84005 1.25275 7.56231 1.55106 8.17484C1.89597 8.88306 3.26729 9.4105 6.00993 10.4654L10 12ZM10 12L12.5 9.5" stroke="#FAFAFA" stroke-width="1.5" stroke-linecap="round" stroke-linejoin="round"/>
</svg>
