<svg width="48" height="42" viewBox="0 0 48 42" fill="none" xmlns="http://www.w3.org/2000/svg">
<rect width="48" height="42" rx="21" fill="#4267B2"/>
<g clip-path="url(#clip0_2395_3319)">
<path d="M23 22L24.5345 25.9899C25.5893 28.7326 26.1168 30.1039 26.825 30.4489C27.4375 30.7472 28.1598 30.7132 28.7415 30.3586C29.4142 29.9486 29.8104 28.5338 30.6027 25.7041L33.466 15.4782C33.9677 13.6867 34.2185 12.791 33.9857 12.1763C33.7827 11.6404 33.3596 11.2172 32.8237 11.0143C32.209 10.7815 31.3133 11.0323 29.5217 11.5339L19.2958 14.3972C16.4662 15.1895 15.0513 15.5856 14.6414 16.2583C14.2868 16.8401 14.2528 17.5623 14.5511 18.1748C14.896 18.8831 16.2673 19.4105 19.0099 20.4654L23 22ZM23 22L25.5 19.5" stroke="#FAFAFA" stroke-width="1.5" stroke-linecap="round" stroke-linejoin="round"/>
</g>
<defs>
<clipPath id="clip0_2395_3319">
<rect width="24" height="24" fill="white" transform="translate(12 9)"/>
</clipPath>
</defs>
</svg>
