<svg width="24" height="25" viewBox="0 0 24 25" fill="none" xmlns="http://www.w3.org/2000/svg">
<path d="M6.40344 7.34818L6.40344 7.3482L6.40719 7.34695L6.93119 7.17342C6.93182 7.17321 6.93232 7.17307 6.9327 7.17297C6.9353 7.1738 6.94329 7.1772 6.95293 7.18693C6.96315 7.19726 6.96982 7.20937 6.97279 7.21965C6.97528 7.22827 6.97529 7.23528 6.97304 7.24331C6.91446 7.4526 6.85843 7.66985 6.80403 7.89473L6.80401 7.89473L6.80314 7.89843L5.82314 12.0884L5.82311 12.0886C5.25877 14.505 5.3632 16.4878 6.31616 18.0268C7.26903 19.5656 8.99822 20.5442 11.4143 21.1187L11.4167 21.1193L11.7589 21.1989L10.9766 21.4564C10.9761 21.4566 10.9756 21.4567 10.9751 21.4569C9.03735 22.0815 7.68157 22.0895 6.67775 21.5759C5.67353 21.0621 4.88556 19.9567 4.25558 18.0179C4.25556 18.0179 4.25555 18.0178 4.25553 18.0178L2.97588 14.0689C2.97584 14.0688 2.97581 14.0686 2.97577 14.0685C2.35071 12.1297 2.34012 10.7707 2.85185 9.76536C3.36322 8.76071 4.46559 7.97298 6.40344 7.34818Z" fill="#D7E71E" stroke="#D7E71E"/>
<path d="M15.3849 4.24897L15.3863 4.24929L17.0561 4.63925C17.0562 4.63926 17.0562 4.63928 17.0563 4.63929C19.103 5.11803 20.3118 5.83634 20.9289 6.83099C21.546 7.82567 21.6519 9.22635 21.1732 11.2683L20.1932 15.4483L20.193 15.4491C19.7831 17.2106 19.1919 18.356 18.3999 19.0338C17.6248 19.6971 16.5808 19.9763 15.1079 19.8347L15.1079 19.8346L15.0999 19.834C14.6303 19.7964 14.1165 19.7113 13.5573 19.5763L13.5558 19.576L11.8758 19.176L11.8755 19.1759C9.83821 18.6922 8.63101 17.9741 8.01349 16.9798C7.39632 15.9862 7.28821 14.5878 7.7668 12.5465L7.76686 12.5463L8.74671 8.35691C8.74674 8.35678 8.74676 8.35666 8.74679 8.35653C8.94191 7.52738 9.17131 6.82701 9.44867 6.26305L9.44868 6.26306L9.45015 6.26003C9.99069 5.14198 10.6904 4.48497 11.5994 4.17129C12.5315 3.84958 13.7555 3.86358 15.3849 4.24897ZM15.7733 14.4003L15.7734 14.4003L15.7751 14.3937C15.9412 13.7292 15.5425 13.045 14.8611 12.8773L11.9532 12.1378L11.9513 12.1373C11.2895 11.9719 10.6034 12.3671 10.4349 13.0411C10.2696 13.7025 10.6643 14.3883 11.3378 14.5572C11.3381 14.5573 11.3384 14.5574 11.3387 14.5575L14.2468 15.297L14.2727 15.3036L14.2993 15.3074C14.3054 15.3082 14.3123 15.3093 14.32 15.3104C14.3753 15.3186 14.4677 15.3324 14.56 15.3324C15.1202 15.3324 15.6236 14.966 15.7733 14.4003ZM18.7033 11.0203L18.7034 11.0204L18.7058 11.0109C18.8674 10.3482 18.4816 9.6538 17.786 9.49599L12.9429 8.26773L12.9413 8.26732C12.2795 8.10189 11.5934 8.49711 11.4249 9.17112C11.2596 9.83257 11.6544 10.5184 12.3279 10.6872C12.3281 10.6873 12.3284 10.6874 12.3287 10.6875L17.1771 11.917L17.2029 11.9236L17.2293 11.9274C17.2354 11.9282 17.2423 11.9293 17.25 11.9304C17.3053 11.9386 17.3977 11.9524 17.49 11.9524C18.0502 11.9524 18.5536 11.586 18.7033 11.0203Z" fill="#D7E71E" stroke="#D7E71E"/>
</svg>
