<svg width="20" height="20" viewBox="0 0 20 20" fill="none" xmlns="http://www.w3.org/2000/svg">
<path opacity="0.4" d="M13.4917 1.66663H6.51668C3.48335 1.66663 1.67502 3.47496 1.67502 6.50829V13.4833C1.67502 16.5166 3.48335 18.325 6.51668 18.325H13.4917C16.525 18.325 18.3333 16.5166 18.3333 13.4833V6.50829C18.3333 3.47496 16.525 1.66663 13.4917 1.66663Z" fill="#FAFAFA"/>
<path d="M9.58332 6.74171V14.375C9.58332 14.675 9.28332 14.875 9.00832 14.7584C7.99999 14.325 6.68331 13.925 5.76664 13.8084L5.60831 13.7917C5.09997 13.725 4.68332 13.25 4.68332 12.7334V6.3167C4.68332 5.68336 5.19999 5.20837 5.83332 5.25837C6.87499 5.34171 8.41666 5.84172 9.38333 6.39172C9.50833 6.45005 9.58332 6.59171 9.58332 6.74171Z" fill="#FAFAFA"/>
<path d="M15.3167 6.41669V12.725C15.3167 13.2417 14.9 13.7167 14.3917 13.7834L14.2167 13.8C13.3083 13.925 12 14.3167 10.9917 14.7417C10.7167 14.8583 10.4167 14.6584 10.4167 14.3584V6.73333C10.4167 6.58333 10.4917 6.44169 10.625 6.36669C11.5917 5.82502 13.1 5.34167 14.125 5.25H14.1583C14.8 5.25833 15.3167 5.77502 15.3167 6.41669Z" fill="#FAFAFA"/>
</svg>
