<svg width="20" height="21" viewBox="0 0 20 21" fill="none" xmlns="http://www.w3.org/2000/svg">
<g clip-path="url(#clip0_457_4754)">
<ellipse cx="9.99996" cy="14.5003" rx="0.833334" ry="0.833333" fill="white"/>
<path d="M7.49996 7.83301C7.49996 6.4523 8.61925 5.33301 9.99996 5.33301C11.3807 5.33301 12.5 6.4523 12.5 7.83301C12.5 8.92715 11.7971 9.85713 10.8182 10.196C10.3833 10.3466 9.99996 10.7061 9.99996 11.1663V11.9997M9.16663 2.83301H10.8333C14.9754 2.83301 18.3333 6.19087 18.3333 10.333C18.3333 14.4751 14.9754 17.833 10.8333 17.833H4.99996C3.15901 17.833 1.66663 16.3406 1.66663 14.4997V10.333C1.66663 6.19087 5.02449 2.83301 9.16663 2.83301Z" stroke="white" stroke-width="1.36364" stroke-linecap="round" stroke-linejoin="round"/>
</g>
<defs>
<clipPath id="clip0_457_4754">
<rect width="20" height="20" fill="white" transform="translate(0 0.333008)"/>
</clipPath>
</defs>
</svg>
