<svg width="12" height="10" viewBox="0 0 12 10" fill="none" xmlns="http://www.w3.org/2000/svg">
<path d="M10.427 0.799805H1.57805C1.30003 0.801368 1.02739 0.86103 0.787351 0.972833C0.547312 1.08464 0.348275 1.24467 0.210115 1.43695C0.0719552 1.62923 -0.000493783 1.84704 2.53296e-06 2.06861C0.000498849 2.29019 0.0739231 2.50778 0.212944 2.69967L4.63932 8.58878C4.78092 8.7751 4.98037 8.9292 5.21844 9.03622C5.4565 9.14325 5.72515 9.19958 5.99848 9.1998C6.27181 9.20002 6.5406 9.14411 6.77893 9.03747C7.01726 8.93083 7.2171 8.77704 7.35917 8.59095L11.7823 2.70619C11.923 2.51468 11.998 2.29707 12 2.07516C12.0019 1.85325 11.9307 1.63483 11.7934 1.44177C11.656 1.24871 11.4575 1.08779 11.2176 0.975121C10.9777 0.862454 10.7054 0.801998 10.427 0.799805Z" fill="#3B5DA0"/>
</svg>
