<svg width="24" height="24" viewBox="0 0 24 24" fill="none" xmlns="http://www.w3.org/2000/svg">
<path d="M14.9625 10.1938C15.8117 10.1938 16.5 9.50541 16.5 8.65627C16.5 7.80714 15.8117 7.11877 14.9625 7.11877C14.1134 7.11877 13.425 7.80714 13.425 8.65627C13.425 9.50541 14.1134 10.1938 14.9625 10.1938Z" stroke="white" stroke-width="1.5" stroke-miterlimit="10" stroke-linecap="round" stroke-linejoin="round"/>
<path d="M8.0375 10.1938C8.88664 10.1938 9.575 9.50541 9.575 8.65627C9.575 7.80714 8.88664 7.11877 8.0375 7.11877C7.18837 7.11877 6.5 7.80714 6.5 8.65627C6.5 9.50541 7.18837 10.1938 8.0375 10.1938Z" stroke="white" stroke-width="1.5" stroke-miterlimit="10" stroke-linecap="round" stroke-linejoin="round"/>
<path d="M14.9625 17.8813C15.8117 17.8813 16.5 17.1929 16.5 16.3438C16.5 15.4946 15.8117 14.8063 14.9625 14.8063C14.1134 14.8063 13.425 15.4946 13.425 16.3438C13.425 17.1929 14.1134 17.8813 14.9625 17.8813Z" stroke="white" stroke-width="1.5" stroke-miterlimit="10" stroke-linecap="round" stroke-linejoin="round"/>
<path d="M8.0375 17.8813C8.88664 17.8813 9.575 17.1929 9.575 16.3438C9.575 15.4946 8.88664 14.8063 8.0375 14.8063C7.18837 14.8063 6.5 15.4946 6.5 16.3438C6.5 17.1929 7.18837 17.8813 8.0375 17.8813Z" stroke="white" stroke-width="1.5" stroke-miterlimit="10" stroke-linecap="round" stroke-linejoin="round"/>
<path d="M9 22H15C20 22 22 20 22 15V9C22 4 20 2 15 2H9C4 2 2 4 2 9V15C2 20 4 22 9 22Z" stroke="white" stroke-width="1.5" stroke-linecap="round" stroke-linejoin="round"/>
</svg>
